<mxfile host="app.diagrams.net" modified="2024-01-26T17:20:32.003Z" agent="Mozilla/5.0 (Windows NT 10.0; Win64; x64) AppleWebKit/537.36 (KHTML, like Gecko) Chrome/120.0.0.0 Safari/537.36 Edg/120.0.0.0" etag="q--ZLf-sA5PKKTZ2YvMI" version="23.0.1" type="device">
  <diagram name="Page-1" id="c9db0220-8083-56f3-ca83-edcdcd058819">
    <mxGraphModel dx="2038" dy="1285" grid="1" gridSize="10" guides="1" tooltips="1" connect="1" arrows="1" fold="1" page="1" pageScale="1.5" pageWidth="826" pageHeight="1169" background="none" math="0" shadow="0">
      <root>
        <mxCell id="0" style=";html=1;" />
        <mxCell id="1" style=";html=1;" parent="0" />
        <mxCell id="66Egt5IpX-3dM2ojUWy4-46" value="" style="html=1;shadow=0;dashed=0;shape=mxgraph.bootstrap.rrect;rSize=5;strokeColor=#6C767D;html=1;whiteSpace=wrap;fillColor=#ffffff;fontColor=#212529;verticalAlign=bottom;align=left;spacing=20;spacingBottom=0;fontSize=14;" vertex="1" parent="1">
          <mxGeometry x="30" y="340" width="670" height="480" as="geometry" />
        </mxCell>
        <mxCell id="66Egt5IpX-3dM2ojUWy4-47" value="Select Symptoms &amp;amp; Diagnose:" style="html=1;shadow=0;dashed=0;shape=mxgraph.bootstrap.topButton;rSize=5;perimeter=none;whiteSpace=wrap;fillColor=#F7F7F7;strokeColor=#6C767D;fontColor=#6C767D;resizeWidth=1;fontSize=18;align=left;spacing=20;" vertex="1" parent="66Egt5IpX-3dM2ojUWy4-46">
          <mxGeometry width="670" height="50" relative="1" as="geometry" />
        </mxCell>
        <mxCell id="66Egt5IpX-3dM2ojUWy4-52" value="remove selected&lt;br&gt;symptom" style="html=1;shadow=0;dashed=0;shape=mxgraph.bootstrap.popover;fillColor=#1A1A1A;strokeColor=none;dx=55;dy=5;rSize=5;whiteSpace=wrap;verticalAlign=top;spacing=10;fontSize=12;spacingLeft=0;align=center;spacingTop=-5;fontColor=#FFFFFF;direction=west;spacingBottom=0;" vertex="1" parent="66Egt5IpX-3dM2ojUWy4-46">
          <mxGeometry x="275" y="310" width="110" height="40" as="geometry" />
        </mxCell>
        <mxCell id="66Egt5IpX-3dM2ojUWy4-60" value="Diagnose" style="html=1;shadow=0;dashed=0;shape=mxgraph.bootstrap.rrect;rSize=5;strokeColor=#0085FC;strokeWidth=1;fillColor=none;fontColor=#0085FC;whiteSpace=wrap;align=center;verticalAlign=middle;spacingLeft=0;fontStyle=0;fontSize=16;spacing=5;" vertex="1" parent="66Egt5IpX-3dM2ojUWy4-46">
          <mxGeometry x="290" y="420" width="80" height="40" as="geometry" />
        </mxCell>
        <mxCell id="66Egt5IpX-3dM2ojUWy4-9" value="" style="html=1;shadow=0;dashed=0;shape=mxgraph.bootstrap.rrect;rSize=5;strokeColor=#DFDFDF;html=1;whiteSpace=wrap;fillColor=#FFFFFF;fontColor=#000000;" vertex="1" parent="1">
          <mxGeometry x="50" y="470" width="260" height="330" as="geometry" />
        </mxCell>
        <mxCell id="66Egt5IpX-3dM2ojUWy4-10" value="Cras justo odio" style="html=1;shadow=0;dashed=0;shape=mxgraph.bootstrap.topButton;rSize=5;strokeColor=none;fillColor=#0085FC;fontColor=#ffffff;perimeter=none;whiteSpace=wrap;resizeWidth=1;align=left;spacing=10;" vertex="1" parent="66Egt5IpX-3dM2ojUWy4-9">
          <mxGeometry width="260" height="30" relative="1" as="geometry" />
        </mxCell>
        <mxCell id="66Egt5IpX-3dM2ojUWy4-11" value="Dapibus ac facilisis in" style="strokeColor=inherit;fillColor=inherit;gradientColor=inherit;fontColor=inherit;html=1;shadow=0;dashed=0;perimeter=none;whiteSpace=wrap;resizeWidth=1;align=left;spacing=10;" vertex="1" parent="66Egt5IpX-3dM2ojUWy4-9">
          <mxGeometry width="260" height="30" relative="1" as="geometry">
            <mxPoint y="30" as="offset" />
          </mxGeometry>
        </mxCell>
        <mxCell id="66Egt5IpX-3dM2ojUWy4-12" value="Morbi leo risus" style="strokeColor=inherit;fillColor=inherit;gradientColor=inherit;fontColor=inherit;html=1;shadow=0;dashed=0;perimeter=none;whiteSpace=wrap;resizeWidth=1;align=left;spacing=10;" vertex="1" parent="66Egt5IpX-3dM2ojUWy4-9">
          <mxGeometry width="260" height="30" relative="1" as="geometry">
            <mxPoint y="60" as="offset" />
          </mxGeometry>
        </mxCell>
        <mxCell id="66Egt5IpX-3dM2ojUWy4-13" value="Porta ac consectetur ac" style="strokeColor=inherit;fillColor=inherit;gradientColor=inherit;fontColor=inherit;html=1;shadow=0;dashed=0;perimeter=none;whiteSpace=wrap;resizeWidth=1;align=left;spacing=10;" vertex="1" parent="66Egt5IpX-3dM2ojUWy4-9">
          <mxGeometry width="260" height="30" relative="1" as="geometry">
            <mxPoint y="90" as="offset" />
          </mxGeometry>
        </mxCell>
        <mxCell id="66Egt5IpX-3dM2ojUWy4-14" value="Vestibulum at eros" style="strokeColor=inherit;fillColor=inherit;gradientColor=inherit;fontColor=inherit;html=1;shadow=0;dashed=0;shape=mxgraph.bootstrap.bottomButton;rSize=5;perimeter=none;whiteSpace=wrap;resizeWidth=1;resizeHeight=0;align=left;spacing=10;" vertex="1" parent="66Egt5IpX-3dM2ojUWy4-9">
          <mxGeometry y="1" width="260" height="30" relative="1" as="geometry">
            <mxPoint y="-30" as="offset" />
          </mxGeometry>
        </mxCell>
        <mxCell id="66Egt5IpX-3dM2ojUWy4-16" value="Dapibus ac facilisis in" style="strokeColor=inherit;fillColor=inherit;gradientColor=inherit;fontColor=inherit;html=1;shadow=0;dashed=0;perimeter=none;whiteSpace=wrap;resizeWidth=1;align=left;spacing=10;" vertex="1" parent="66Egt5IpX-3dM2ojUWy4-9">
          <mxGeometry width="260" height="30" relative="1" as="geometry">
            <mxPoint y="120" as="offset" />
          </mxGeometry>
        </mxCell>
        <mxCell id="66Egt5IpX-3dM2ojUWy4-17" value="Morbi leo risus" style="strokeColor=inherit;fillColor=inherit;gradientColor=inherit;fontColor=inherit;html=1;shadow=0;dashed=0;perimeter=none;whiteSpace=wrap;resizeWidth=1;align=left;spacing=10;" vertex="1" parent="66Egt5IpX-3dM2ojUWy4-9">
          <mxGeometry width="260" height="30" relative="1" as="geometry">
            <mxPoint y="150" as="offset" />
          </mxGeometry>
        </mxCell>
        <mxCell id="66Egt5IpX-3dM2ojUWy4-18" value="Porta ac consectetur ac" style="strokeColor=inherit;fillColor=inherit;gradientColor=inherit;fontColor=inherit;html=1;shadow=0;dashed=0;perimeter=none;whiteSpace=wrap;resizeWidth=1;align=left;spacing=10;" vertex="1" parent="66Egt5IpX-3dM2ojUWy4-9">
          <mxGeometry width="260" height="30" relative="1" as="geometry">
            <mxPoint y="180" as="offset" />
          </mxGeometry>
        </mxCell>
        <mxCell id="66Egt5IpX-3dM2ojUWy4-19" value="Dapibus ac facilisis in" style="strokeColor=inherit;fillColor=inherit;gradientColor=inherit;fontColor=inherit;html=1;shadow=0;dashed=0;perimeter=none;whiteSpace=wrap;resizeWidth=1;align=left;spacing=10;" vertex="1" parent="66Egt5IpX-3dM2ojUWy4-9">
          <mxGeometry width="260" height="30" relative="1" as="geometry">
            <mxPoint y="210" as="offset" />
          </mxGeometry>
        </mxCell>
        <mxCell id="66Egt5IpX-3dM2ojUWy4-20" value="Morbi leo risus" style="strokeColor=inherit;fillColor=inherit;gradientColor=inherit;fontColor=inherit;html=1;shadow=0;dashed=0;perimeter=none;whiteSpace=wrap;resizeWidth=1;align=left;spacing=10;" vertex="1" parent="66Egt5IpX-3dM2ojUWy4-9">
          <mxGeometry width="260" height="30" relative="1" as="geometry">
            <mxPoint y="240" as="offset" />
          </mxGeometry>
        </mxCell>
        <mxCell id="66Egt5IpX-3dM2ojUWy4-21" value="Porta ac consectetur ac" style="strokeColor=inherit;fillColor=inherit;gradientColor=inherit;fontColor=inherit;html=1;shadow=0;dashed=0;perimeter=none;whiteSpace=wrap;resizeWidth=1;align=left;spacing=10;" vertex="1" parent="66Egt5IpX-3dM2ojUWy4-9">
          <mxGeometry width="260" height="30" relative="1" as="geometry">
            <mxPoint y="270" as="offset" />
          </mxGeometry>
        </mxCell>
        <mxCell id="66Egt5IpX-3dM2ojUWy4-56" value="" style="group" vertex="1" connectable="0" parent="66Egt5IpX-3dM2ojUWy4-9">
          <mxGeometry x="220" y="300" width="28.57" height="20" as="geometry" />
        </mxCell>
        <mxCell id="66Egt5IpX-3dM2ojUWy4-54" value="" style="triangle;whiteSpace=wrap;html=1;rotation=90;" vertex="1" parent="66Egt5IpX-3dM2ojUWy4-56">
          <mxGeometry x="8.571" width="11.428" height="28.57142857142857" as="geometry" />
        </mxCell>
        <mxCell id="66Egt5IpX-3dM2ojUWy4-55" value="" style="triangle;whiteSpace=wrap;html=1;rotation=90;" vertex="1" parent="66Egt5IpX-3dM2ojUWy4-56">
          <mxGeometry x="8.571" y="-8.571428571428571" width="11.428" height="28.57142857142857" as="geometry" />
        </mxCell>
        <mxCell id="66Egt5IpX-3dM2ojUWy4-22" value="" style="html=1;shadow=0;dashed=0;fillColor=#F8F9FA;strokeColor=none;fontSize=16;fontColor=#181819;align=left;spacing=15;" vertex="1" parent="1">
          <mxGeometry x="40" y="400" width="290" height="60" as="geometry" />
        </mxCell>
        <mxCell id="66Egt5IpX-3dM2ojUWy4-23" value="Search for Symptom" style="html=1;shadow=0;dashed=0;shape=mxgraph.bootstrap.rrect;rSize=5;fontSize=14;fontColor=#6C767D;strokeColor=#CED4DA;fillColor=#ffffff;align=left;spacing=10;" vertex="1" parent="66Egt5IpX-3dM2ojUWy4-22">
          <mxGeometry width="180" height="40" relative="1" as="geometry">
            <mxPoint x="10" y="10" as="offset" />
          </mxGeometry>
        </mxCell>
        <mxCell id="66Egt5IpX-3dM2ojUWy4-24" value="Search" style="html=1;shadow=0;dashed=0;shape=mxgraph.bootstrap.rrect;rSize=5;fontSize=14;fontColor=#33A64C;strokeColor=#33A64C;fillColor=none;" vertex="1" parent="66Egt5IpX-3dM2ojUWy4-22">
          <mxGeometry width="70" height="40" relative="1" as="geometry">
            <mxPoint x="200" y="10" as="offset" />
          </mxGeometry>
        </mxCell>
        <mxCell id="66Egt5IpX-3dM2ojUWy4-25" value="" style="html=1;shadow=0;dashed=0;shape=mxgraph.bootstrap.rrect;rSize=5;strokeColor=none;html=1;whiteSpace=wrap;fillColor=#6C767D;fontColor=#ffffff;sketch=0;" vertex="1" parent="1">
          <mxGeometry x="330" y="580" width="60" height="70" as="geometry" />
        </mxCell>
        <mxCell id="66Egt5IpX-3dM2ojUWy4-26" value="&amp;gt;&amp;gt;" style="strokeColor=inherit;fillColor=inherit;gradientColor=inherit;fontColor=inherit;html=1;shadow=0;dashed=0;shape=mxgraph.bootstrap.topButton;rSize=5;perimeter=none;whiteSpace=wrap;resizeWidth=1;sketch=0;" vertex="1" parent="66Egt5IpX-3dM2ojUWy4-25">
          <mxGeometry width="60" height="30" relative="1" as="geometry" />
        </mxCell>
        <mxCell id="66Egt5IpX-3dM2ojUWy4-31" value="&amp;lt;&amp;lt;" style="strokeColor=inherit;fillColor=inherit;gradientColor=inherit;fontColor=inherit;html=1;shadow=0;dashed=0;shape=mxgraph.bootstrap.bottomButton;rSize=5;perimeter=none;whiteSpace=wrap;resizeWidth=1;resizeHeight=0;sketch=0;" vertex="1" parent="66Egt5IpX-3dM2ojUWy4-25">
          <mxGeometry y="1" width="60" height="30" relative="1" as="geometry">
            <mxPoint y="-30" as="offset" />
          </mxGeometry>
        </mxCell>
        <mxCell id="66Egt5IpX-3dM2ojUWy4-32" value="" style="html=1;shadow=0;dashed=0;shape=mxgraph.bootstrap.rrect;rSize=5;strokeColor=#DFDFDF;html=1;whiteSpace=wrap;fillColor=#FFFFFF;fontColor=#000000;" vertex="1" parent="1">
          <mxGeometry x="410" y="470" width="260" height="330" as="geometry" />
        </mxCell>
        <mxCell id="66Egt5IpX-3dM2ojUWy4-33" value="selected symptom #1" style="html=1;shadow=0;dashed=0;shape=mxgraph.bootstrap.topButton;rSize=5;strokeColor=none;fillColor=#0085FC;fontColor=#ffffff;perimeter=none;whiteSpace=wrap;resizeWidth=1;align=left;spacing=10;" vertex="1" parent="66Egt5IpX-3dM2ojUWy4-32">
          <mxGeometry width="260" height="30" relative="1" as="geometry" />
        </mxCell>
        <mxCell id="66Egt5IpX-3dM2ojUWy4-34" value="selected symptom #2" style="strokeColor=inherit;fillColor=inherit;gradientColor=inherit;fontColor=inherit;html=1;shadow=0;dashed=0;perimeter=none;whiteSpace=wrap;resizeWidth=1;align=left;spacing=10;" vertex="1" parent="66Egt5IpX-3dM2ojUWy4-32">
          <mxGeometry width="260" height="30" relative="1" as="geometry">
            <mxPoint y="30" as="offset" />
          </mxGeometry>
        </mxCell>
        <mxCell id="66Egt5IpX-3dM2ojUWy4-35" value="selected symptom #3" style="strokeColor=inherit;fillColor=inherit;gradientColor=inherit;fontColor=inherit;html=1;shadow=0;dashed=0;perimeter=none;whiteSpace=wrap;resizeWidth=1;align=left;spacing=10;" vertex="1" parent="66Egt5IpX-3dM2ojUWy4-32">
          <mxGeometry width="260" height="30" relative="1" as="geometry">
            <mxPoint y="60" as="offset" />
          </mxGeometry>
        </mxCell>
        <mxCell id="66Egt5IpX-3dM2ojUWy4-44" value="add selected symptom" style="html=1;shadow=0;dashed=0;shape=mxgraph.bootstrap.popover;fillColor=#1A1A1A;strokeColor=none;dx=45;dy=5;rSize=5;whiteSpace=wrap;verticalAlign=top;spacing=10;fontSize=12;spacingLeft=0;align=center;spacingTop=-10;fontColor=#FFFFFF;" vertex="1" parent="1">
          <mxGeometry x="315" y="530" width="90" height="50" as="geometry" />
        </mxCell>
        <mxCell id="66Egt5IpX-3dM2ojUWy4-48" value="" style="html=1;shadow=0;dashed=0;shape=mxgraph.bootstrap.rrect;rSize=5;strokeColor=#D2D3D4;html=1;whiteSpace=wrap;fillColor=#F8F9FA;fontColor=#212529;verticalAlign=bottom;align=left;spacing=20;spacingBottom=0;fontSize=14;" vertex="1" parent="1">
          <mxGeometry x="30" y="40" width="670" height="280" as="geometry" />
        </mxCell>
        <mxCell id="66Egt5IpX-3dM2ojUWy4-49" value="Patient Data" style="html=1;shadow=0;dashed=0;shape=mxgraph.bootstrap.topButton;rSize=5;perimeter=none;whiteSpace=wrap;fillColor=#F0F1F2;strokeColor=#D2D3D4;fontColor=#212529;resizeWidth=1;fontSize=18;align=left;spacing=20;" vertex="1" parent="66Egt5IpX-3dM2ojUWy4-48">
          <mxGeometry width="670" height="50" relative="1" as="geometry" />
        </mxCell>
        <mxCell id="66Egt5IpX-3dM2ojUWy4-50" value="John Doe" style="html=1;shadow=0;dashed=0;shape=mxgraph.bootstrap.rrect;rSize=5;strokeColor=#DFDFDF;html=1;whiteSpace=wrap;fillColor=#ffffff;fontColor=#000000;verticalAlign=bottom;align=center;spacing=20;fontSize=14;" vertex="1" parent="66Egt5IpX-3dM2ojUWy4-48">
          <mxGeometry x="10" y="70" width="140" height="187.5066666666667" as="geometry" />
        </mxCell>
        <mxCell id="66Egt5IpX-3dM2ojUWy4-51" value="Image cap" style="html=1;shadow=0;dashed=0;shape=mxgraph.bootstrap.topButton;rSize=5;perimeter=none;whiteSpace=wrap;fillColor=#868E96;strokeColor=#DFDFDF;fontColor=#DEE2E6;resizeWidth=1;fontSize=18;" vertex="1" parent="66Egt5IpX-3dM2ojUWy4-50">
          <mxGeometry width="140" height="140" relative="1" as="geometry" />
        </mxCell>
        <mxCell id="66Egt5IpX-3dM2ojUWy4-57" value="" style="html=1;shadow=0;dashed=0;shape=mxgraph.bootstrap.rrect;rSize=5;strokeColor=#6C767D;html=1;whiteSpace=wrap;fillColor=#ffffff;fontColor=#212529;verticalAlign=bottom;align=left;spacing=20;spacingBottom=0;fontSize=14;" vertex="1" parent="1">
          <mxGeometry x="30" y="850" width="670" height="360" as="geometry" />
        </mxCell>
        <mxCell id="66Egt5IpX-3dM2ojUWy4-58" value="Diagnosis &amp;amp; Explanation:" style="html=1;shadow=0;dashed=0;shape=mxgraph.bootstrap.topButton;rSize=5;perimeter=none;whiteSpace=wrap;fillColor=#F7F7F7;strokeColor=#6C767D;fontColor=#6C767D;resizeWidth=1;fontSize=18;align=left;spacing=20;" vertex="1" parent="66Egt5IpX-3dM2ojUWy4-57">
          <mxGeometry width="670" height="50" relative="1" as="geometry" />
        </mxCell>
        <mxCell id="66Egt5IpX-3dM2ojUWy4-61" value="&lt;b&gt;Allergy&lt;/b&gt;&lt;br&gt;&lt;br&gt;&lt;font style=&quot;font-size: 40px;&quot;&gt;80% &lt;/font&gt;&lt;font style=&quot;font-size: 14px;&quot;&gt;confidence&lt;/font&gt;" style="html=1;shadow=0;dashed=0;shape=mxgraph.bootstrap.rrect;rSize=5;strokeColor=#2B8D40;html=1;whiteSpace=wrap;fillColor=#33A64C;fontColor=#ffffff;verticalAlign=top;align=left;spacing=20;spacingBottom=0;fontSize=20;spacingTop=40;" vertex="1" parent="66Egt5IpX-3dM2ojUWy4-57">
          <mxGeometry x="20" y="70" width="200" height="190" as="geometry" />
        </mxCell>
        <mxCell id="66Egt5IpX-3dM2ojUWy4-62" value="RF Model" style="html=1;shadow=0;dashed=0;shape=mxgraph.bootstrap.topButton;rSize=5;perimeter=none;whiteSpace=wrap;fillColor=#31A14A;strokeColor=#2B8D40;fontColor=#ffffff;resizeWidth=1;fontSize=18;align=left;spacing=20;" vertex="1" parent="66Egt5IpX-3dM2ojUWy4-61">
          <mxGeometry width="200.00000000000003" height="50" relative="1" as="geometry" />
        </mxCell>
        <mxCell id="66Egt5IpX-3dM2ojUWy4-67" value="&lt;b style=&quot;border-color: var(--border-color); font-size: 20px;&quot;&gt;Allergy&lt;/b&gt;&lt;br style=&quot;border-color: var(--border-color); font-size: 20px;&quot;&gt;&lt;br style=&quot;border-color: var(--border-color); font-size: 20px;&quot;&gt;&lt;font style=&quot;border-color: var(--border-color); font-size: 40px;&quot;&gt;55%&amp;nbsp;&lt;/font&gt;confidence" style="html=1;shadow=0;dashed=0;shape=mxgraph.bootstrap.rrect;rSize=5;strokeColor=#5B646A;html=1;whiteSpace=wrap;fillColor=#6C767D;fontColor=#ffffff;verticalAlign=top;align=left;spacing=20;spacingBottom=0;fontSize=14;spacingTop=40;" vertex="1" parent="66Egt5IpX-3dM2ojUWy4-57">
          <mxGeometry x="235" y="70" width="200" height="190" as="geometry" />
        </mxCell>
        <mxCell id="66Egt5IpX-3dM2ojUWy4-68" value="Naive Bayes" style="html=1;shadow=0;dashed=0;shape=mxgraph.bootstrap.topButton;rSize=5;perimeter=none;whiteSpace=wrap;fillColor=#697279;strokeColor=#5B646A;fontColor=#ffffff;resizeWidth=1;fontSize=18;align=left;spacing=20;" vertex="1" parent="66Egt5IpX-3dM2ojUWy4-67">
          <mxGeometry width="200" height="50" relative="1" as="geometry" />
        </mxCell>
        <mxCell id="66Egt5IpX-3dM2ojUWy4-69" value="&lt;b style=&quot;border-color: var(--border-color); font-size: 20px;&quot;&gt;Allergy&lt;/b&gt;&lt;br style=&quot;border-color: var(--border-color); font-size: 20px;&quot;&gt;&lt;br style=&quot;border-color: var(--border-color); font-size: 20px;&quot;&gt;&lt;font style=&quot;border-color: var(--border-color); font-size: 40px;&quot;&gt;35%&amp;nbsp;&lt;/font&gt;confidence" style="html=1;shadow=0;dashed=0;shape=mxgraph.bootstrap.rrect;rSize=5;strokeColor=#BA2239;html=1;whiteSpace=wrap;fillColor=#DB2843;fontColor=#ffffff;verticalAlign=top;align=left;spacing=20;spacingBottom=0;fontSize=14;spacingTop=40;" vertex="1" parent="66Egt5IpX-3dM2ojUWy4-57">
          <mxGeometry x="450" y="70" width="200" height="190" as="geometry" />
        </mxCell>
        <mxCell id="66Egt5IpX-3dM2ojUWy4-70" value="SVM" style="html=1;shadow=0;dashed=0;shape=mxgraph.bootstrap.topButton;rSize=5;perimeter=none;whiteSpace=wrap;fillColor=#D42741;strokeColor=#BA2239;fontColor=#ffffff;resizeWidth=1;fontSize=18;align=left;spacing=20;" vertex="1" parent="66Egt5IpX-3dM2ojUWy4-69">
          <mxGeometry width="200" height="50" relative="1" as="geometry" />
        </mxCell>
      </root>
    </mxGraphModel>
  </diagram>
</mxfile>
